<svg width="862" height="724" viewBox="0 0 862 724" fill="none" xmlns="http://www.w3.org/2000/svg">
<rect y="0.235352" width="862" height="723.684" rx="48" fill="white"/>
<path d="M349 437.92L302 472.17" stroke="#E0DBED" stroke-width="1.5" stroke-linecap="round" stroke-dasharray="5 5"/>
<path d="M431 269.92L431 218.92" stroke="#E0DBED" stroke-width="1.5" stroke-linecap="round" stroke-dasharray="5 5"/>
<path d="M510 437.92L557 472.17" stroke="#E0DBED" stroke-width="1.5" stroke-linecap="round" stroke-dasharray="5 5"/>
<path d="M255 506.42L302 472.42" stroke="#01D9B1" stroke-width="1.5" stroke-linecap="round" stroke-dasharray="5 5"/>
<path d="M431 217.92L431 181.92" stroke="#01D9B1" stroke-width="1.5" stroke-linecap="round" stroke-dasharray="5 5"/>
<path d="M604 506.42L557 471.92" stroke="#01D9B1" stroke-width="1.5" stroke-linecap="round" stroke-dasharray="5 5"/>
<path fill-rule="evenodd" clip-rule="evenodd" d="M428 415.491C407.459 415.491 390.744 398.776 390.744 378.235C390.744 357.694 407.455 340.979 428 340.979C448.541 340.979 465.256 357.69 465.256 378.235C465.256 398.776 448.541 415.491 428 415.491ZM426.973 386.413C425.227 376.995 424.266 375.976 422.119 373.294C421.781 374.593 421.497 375.224 419.889 374.581C417.734 373.716 414.835 370.659 414.522 370.087C414.434 371.181 414.43 372.43 414.985 373.524C413.49 372.659 410.846 370.788 409.723 368.742C409.493 369.844 409.318 371.006 409.489 372.108C408.416 371.177 405.329 369.009 404.515 367.008C404.26 368.195 404.118 369.059 404.498 370.053C400.626 366.996 399.649 362.974 399.252 359.11C396.867 377.864 409.74 373.871 419.304 378.611C421.768 379.839 424.274 382.036 426.973 386.413ZM429.027 386.413C430.773 376.995 431.734 375.976 433.881 373.294C434.219 374.593 434.503 375.224 436.111 374.581C438.266 373.716 441.165 370.659 441.478 370.087C441.566 371.181 441.57 372.43 441.015 373.524C442.51 372.659 445.154 370.788 446.277 368.742C446.507 369.844 446.682 371.006 446.511 372.108C447.584 371.177 450.671 369.009 451.485 367.008C451.74 368.195 451.882 369.059 451.502 370.053C455.374 366.996 456.351 362.974 456.748 359.11C459.133 377.864 446.26 373.871 436.696 378.611C434.227 379.839 431.726 382.036 429.027 386.413ZM436.349 364.072L439.444 345.022C432.085 342.487 423.924 342.487 416.56 345.022L419.651 364.072C422.641 364.791 425.398 368.85 428 375.178C430.602 368.846 433.359 364.786 436.349 364.072ZM450.721 364.941L454.033 354.658C453.645 354.228 453.244 353.81 452.834 353.401C449.476 350.043 445.442 347.361 440.952 345.578L438.166 363.417C442.464 362.656 446.615 363.567 450.721 364.941ZM454.497 374.685L462.533 371.799C461.977 368.788 461.033 365.914 459.764 363.224C459.526 367.276 458.231 371.164 454.497 374.685ZM459.684 384.722L462.499 384.83C462.779 383.352 462.967 381.84 463.059 380.299L460.628 380.115C460.632 381.439 460.106 383.197 459.684 384.722ZM462.771 373.265L453.19 379.041L463.122 378.265V378.231C463.122 376.548 463.001 374.89 462.771 373.265ZM451.515 396.157L455.925 399.532C458.978 395.531 461.196 390.857 462.307 385.77L459.404 385.394C457.625 389.972 454.998 393.526 451.515 396.157ZM442.347 400.543L449.573 405.952C450.717 405.058 451.807 404.097 452.834 403.07C453.54 402.364 454.213 401.629 454.856 400.869L454.86 400.856L450.341 396.989C448.019 398.53 445.354 399.703 442.347 400.543ZM437.013 401.629C435.585 406.883 432.878 410.738 428.434 412.217V413.353C435.806 413.265 442.631 410.901 448.244 406.937L440.53 400.998C439.402 401.253 438.229 401.462 437.013 401.629ZM436.057 380.495L433.952 389.278C445.396 390.076 449.397 385.29 449.994 377.956L443.379 379.163C443.683 379.664 443.859 380.249 443.859 380.879C443.859 382.704 442.38 384.183 440.555 384.183C438.73 384.183 437.251 382.704 437.251 380.879C437.251 380.67 437.272 380.466 437.31 380.269L436.057 380.495ZM456.414 380.274L452.697 380.253C450.976 390.139 444.055 392.407 436.04 392.632L432.883 400.66C447.919 399.971 455.909 390.59 456.414 380.274ZM433.045 387.115L428 390.16L422.955 387.115L421.798 392.933L428 405.15L434.202 392.933L433.045 387.115ZM417.838 363.417L415.052 345.578C410.562 347.361 406.528 350.043 403.17 353.401C402.76 353.81 402.359 354.232 401.971 354.658L405.283 364.941C409.385 363.567 413.536 362.656 417.838 363.417ZM396.236 363.229C394.963 365.918 394.023 368.792 393.467 371.803L401.503 374.689C397.769 371.164 396.474 367.276 396.236 363.229ZM395.372 380.115L392.941 380.299C393.029 381.84 393.217 383.352 393.501 384.83L396.316 384.722C395.89 383.197 395.368 381.439 395.372 380.115ZM393.229 373.265C392.999 374.89 392.878 376.548 392.878 378.235V378.269L402.81 379.046L393.229 373.265ZM396.591 385.398L393.689 385.774C394.8 390.861 397.017 395.535 400.071 399.536L404.481 396.162C401.002 393.526 398.375 389.972 396.591 385.398ZM405.659 396.993L401.14 400.86L401.144 400.873C401.787 401.633 402.46 402.368 403.166 403.074C404.193 404.101 405.279 405.062 406.423 405.956L413.649 400.547C410.646 399.703 407.981 398.53 405.659 396.993ZM418.987 401.629C417.771 401.462 416.598 401.249 415.47 400.998L407.756 406.937C413.369 410.901 420.194 413.265 427.566 413.353V412.217C423.122 410.742 420.415 406.883 418.987 401.629ZM419.943 380.495L418.69 380.265C418.728 380.462 418.749 380.666 418.749 380.875C418.749 382.7 417.27 384.179 415.445 384.179C413.62 384.179 412.141 382.7 412.141 380.875C412.141 380.244 412.317 379.66 412.621 379.158L406.006 377.951C406.603 385.286 410.604 390.072 422.048 389.274L419.943 380.495ZM403.299 380.257L399.582 380.278C400.091 390.59 408.081 399.971 423.113 400.664L419.956 392.637C411.941 392.411 405.02 390.139 403.299 380.257ZM428 338.235C405.943 338.235 388 356.178 388 378.235C388 400.292 405.943 418.235 428 418.235C450.057 418.235 468 400.292 468 378.235C468 356.178 450.057 338.235 428 338.235Z" fill="#6E2DFA"/>
<circle cx="431" cy="377.92" r="288.25" stroke="#30C6FF" stroke-width="1.5" stroke-dasharray="5 5"/>
<circle cx="431" cy="377.92" r="216.25" stroke="#01D9B1" stroke-width="1.5" stroke-dasharray="5 5"/>
<circle cx="431" cy="377.92" r="104.25" stroke="#6E2DFA" stroke-width="1.5"/>
<rect x="327.75" y="415.67" width="46.5" height="46.5" rx="23.25" fill="#F1EAFE"/>
<path d="M357.807 444.5C356.596 446.264 354.879 447.619 352.883 448.387L351.958 448.742C351.341 448.979 350.659 448.979 350.043 448.742L349.118 448.387C347.121 447.619 345.404 446.264 344.193 444.5C342.982 442.737 342.334 440.648 342.334 438.509V431.741C342.332 431.486 342.404 431.237 342.541 431.022C342.678 430.807 342.874 430.636 343.106 430.53C345.594 429.444 348.285 428.896 351 428.921C353.716 428.896 356.406 429.444 358.895 430.53C359.127 430.636 359.323 430.807 359.46 431.022C359.596 431.237 359.668 431.486 359.667 431.741" stroke="#6E2DFA" stroke-width="1.5" stroke-linecap="round" stroke-linejoin="round"/>
<path d="M348.445 437.587H358.112M358.112 437.587L354.112 433.587M358.112 437.587L354.112 441.587" stroke="#6E2DFA" stroke-width="1.5" stroke-linecap="round"/>
<rect x="327.75" y="415.67" width="46.5" height="46.5" rx="23.25" stroke="#6E2DFA" stroke-width="1.5"/>
<path d="M175.5 508.42L259 505.92M259 505.92L233.5 584.92M259 505.92L200 547.92" stroke="#30C6FF" stroke-width="1.5" stroke-linecap="round" stroke-dasharray="5 5"/>
<rect x="213.75" y="565.67" width="38.5" height="38.5" rx="19.25" fill="#EAF9FF"/>
<g clip-path="url(#clip0_4_187430)">
<path d="M225.759 579.604L232.23 577.067C232.724 576.871 233.273 576.871 233.767 577.067L240.238 579.604C240.469 579.702 240.664 579.867 240.8 580.078C240.936 580.289 241.005 580.535 241 580.786V589.054C241.006 589.305 240.937 589.551 240.801 589.762C240.666 589.972 240.471 590.138 240.241 590.236L233.77 592.774C233.276 592.968 232.727 592.968 232.233 592.774L225.762 590.236C225.531 590.138 225.336 589.973 225.2 589.762C225.064 589.551 224.995 589.305 225 589.054V580.786C224.994 580.535 225.063 580.289 225.199 580.079C225.334 579.868 225.529 579.703 225.759 579.604V579.604Z" stroke="#30C6FF" stroke-width="1.5" stroke-linecap="round" stroke-linejoin="round"/>
<path d="M233 583.038L225.252 580" stroke="#30C6FF" stroke-width="1.5" stroke-linecap="round" stroke-linejoin="round"/>
<path d="M233 583.038L240.748 580" stroke="#30C6FF" stroke-width="1.5" stroke-linecap="round" stroke-linejoin="round"/>
<path d="M233 592.92V583.038" stroke="#30C6FF" stroke-width="1.5" stroke-linecap="round" stroke-linejoin="round"/>
</g>
<rect x="213.75" y="565.67" width="38.5" height="38.5" rx="19.25" stroke="#30C6FF" stroke-width="1.5"/>
<rect x="178.75" y="530.67" width="38.5" height="38.5" rx="19.25" fill="#EAF9FF"/>
<g clip-path="url(#clip1_4_187430)">
<path d="M190.759 544.604L197.23 542.067C197.724 541.871 198.273 541.871 198.767 542.067L205.238 544.604C205.469 544.702 205.664 544.867 205.8 545.078C205.936 545.289 206.005 545.535 206 545.786V554.054C206.006 554.305 205.937 554.551 205.801 554.762C205.666 554.972 205.471 555.138 205.241 555.236L198.77 557.774C198.276 557.968 197.727 557.968 197.233 557.774L190.762 555.236C190.531 555.138 190.336 554.973 190.2 554.762C190.064 554.551 189.995 554.305 190 554.054V545.786C189.994 545.535 190.063 545.289 190.199 545.079C190.334 544.868 190.529 544.703 190.759 544.604V544.604Z" stroke="#30C6FF" stroke-width="1.5" stroke-linecap="round" stroke-linejoin="round"/>
<path d="M198 548.038L190.252 545" stroke="#30C6FF" stroke-width="1.5" stroke-linecap="round" stroke-linejoin="round"/>
<path d="M198 548.038L205.748 545" stroke="#30C6FF" stroke-width="1.5" stroke-linecap="round" stroke-linejoin="round"/>
<path d="M198 557.92V548.038" stroke="#30C6FF" stroke-width="1.5" stroke-linecap="round" stroke-linejoin="round"/>
</g>
<rect x="178.75" y="530.67" width="38.5" height="38.5" rx="19.25" stroke="#30C6FF" stroke-width="1.5"/>
<rect x="154.75" y="487.67" width="38.5" height="38.5" rx="19.25" fill="#EAF9FF"/>
<g clip-path="url(#clip2_4_187430)">
<path d="M166.759 501.604L173.23 499.067C173.724 498.871 174.273 498.871 174.767 499.067L181.238 501.604C181.469 501.702 181.664 501.867 181.8 502.078C181.936 502.289 182.005 502.535 182 502.786V511.054C182.006 511.305 181.937 511.551 181.801 511.762C181.666 511.972 181.471 512.138 181.241 512.236L174.77 514.774C174.276 514.968 173.727 514.968 173.233 514.774L166.762 512.236C166.531 512.138 166.336 511.973 166.2 511.762C166.064 511.551 165.995 511.305 166 511.054V502.786C165.994 502.535 166.063 502.289 166.199 502.079C166.334 501.868 166.529 501.703 166.759 501.604V501.604Z" stroke="#30C6FF" stroke-width="1.5" stroke-linecap="round" stroke-linejoin="round"/>
<path d="M174 505.038L166.252 502" stroke="#30C6FF" stroke-width="1.5" stroke-linecap="round" stroke-linejoin="round"/>
<path d="M174 505.038L181.748 502" stroke="#30C6FF" stroke-width="1.5" stroke-linecap="round" stroke-linejoin="round"/>
<path d="M174 514.92V505.038" stroke="#30C6FF" stroke-width="1.5" stroke-linecap="round" stroke-linejoin="round"/>
</g>
<rect x="154.75" y="487.67" width="38.5" height="38.5" rx="19.25" stroke="#30C6FF" stroke-width="1.5"/>
<rect x="235.75" y="484.67" width="46.5" height="46.5" rx="23.25" fill="#E6FBF7"/>
<g clip-path="url(#clip3_4_187430)">
<path d="M255 500.42H256.5V501.92C256.5 502.716 256.816 503.479 257.379 504.041C257.941 504.604 258.704 504.92 259.5 504.92C260.296 504.92 261.059 504.604 261.621 504.041C262.184 503.479 262.5 502.716 262.5 501.92V500.42" stroke="#01D9B1" stroke-width="1.5" stroke-linecap="round" stroke-linejoin="round"/>
<path d="M262.5 500.42H256.5L255.75 497.42L263.25 498.17L262.5 500.42Z" stroke="#01D9B1" stroke-width="1.5" stroke-linecap="round" stroke-linejoin="round"/>
<path d="M256.5 518.42V510.041L252.311 514.23C252.03 514.511 251.648 514.669 251.25 514.67C250.853 514.67 250.471 514.512 250.19 514.23C249.908 513.949 249.75 513.568 249.75 513.17C249.75 512.772 249.908 512.39 250.189 512.109L255.439 506.859C255.578 506.72 255.744 506.609 255.926 506.534C256.108 506.459 256.303 506.42 256.5 506.42H258L259.5 508.67L261 506.42C262.194 506.42 263.338 506.894 264.182 507.738C265.026 508.582 265.5 509.726 265.5 510.92V515.42C265.5 515.818 265.342 516.199 265.061 516.481C264.779 516.762 264.398 516.92 264 516.92C263.602 516.92 263.221 516.762 262.939 516.481C262.658 516.199 262.5 515.818 262.5 515.42V510.92" stroke="#01D9B1" stroke-width="1.5" stroke-linecap="round" stroke-linejoin="round"/>
<path d="M247.75 518.42H270.25" stroke="#01D9B1" stroke-width="1.5" stroke-linecap="round" stroke-linejoin="round"/>
</g>
<rect x="235.75" y="484.67" width="46.5" height="46.5" rx="23.25" stroke="#01D9B1" stroke-width="1.5"/>
<path d="M686.5 508.42L603 505.92M603 505.92L628.5 584.92M603 505.92L662 547.92" stroke="#30C6FF" stroke-width="1.5" stroke-linecap="round" stroke-dasharray="5 5"/>
<rect x="609.75" y="565.67" width="38.5" height="38.5" rx="19.25" fill="#EAF9FF"/>
<g clip-path="url(#clip4_4_187430)">
<path d="M621.759 579.604L628.23 577.067C628.724 576.871 629.273 576.871 629.767 577.067L636.238 579.604C636.469 579.702 636.664 579.867 636.8 580.078C636.936 580.289 637.005 580.535 637 580.786V589.054C637.006 589.305 636.937 589.551 636.801 589.762C636.666 589.972 636.471 590.138 636.241 590.236L629.77 592.774C629.276 592.968 628.727 592.968 628.233 592.774L621.762 590.236C621.531 590.138 621.336 589.973 621.2 589.762C621.064 589.551 620.995 589.305 621 589.054V580.786C620.994 580.535 621.063 580.289 621.199 580.079C621.334 579.868 621.529 579.703 621.759 579.604V579.604Z" stroke="#30C6FF" stroke-width="1.5" stroke-linecap="round" stroke-linejoin="round"/>
<path d="M629 583.038L621.252 580" stroke="#30C6FF" stroke-width="1.5" stroke-linecap="round" stroke-linejoin="round"/>
<path d="M629 583.038L636.748 580" stroke="#30C6FF" stroke-width="1.5" stroke-linecap="round" stroke-linejoin="round"/>
<path d="M629 592.92V583.038" stroke="#30C6FF" stroke-width="1.5" stroke-linecap="round" stroke-linejoin="round"/>
</g>
<rect x="609.75" y="565.67" width="38.5" height="38.5" rx="19.25" stroke="#30C6FF" stroke-width="1.5"/>
<rect x="644.75" y="530.67" width="38.5" height="38.5" rx="19.25" fill="#EAF9FF"/>
<g clip-path="url(#clip5_4_187430)">
<path d="M656.759 544.604L663.23 542.067C663.724 541.871 664.273 541.871 664.767 542.067L671.238 544.604C671.469 544.702 671.664 544.867 671.8 545.078C671.936 545.289 672.005 545.535 672 545.786V554.054C672.006 554.305 671.937 554.551 671.801 554.762C671.666 554.972 671.471 555.138 671.241 555.236L664.77 557.774C664.276 557.968 663.727 557.968 663.233 557.774L656.762 555.236C656.531 555.138 656.336 554.973 656.2 554.762C656.064 554.551 655.995 554.305 656 554.054V545.786C655.994 545.535 656.063 545.289 656.199 545.079C656.334 544.868 656.529 544.703 656.759 544.604V544.604Z" stroke="#30C6FF" stroke-width="1.5" stroke-linecap="round" stroke-linejoin="round"/>
<path d="M664 548.038L656.252 545" stroke="#30C6FF" stroke-width="1.5" stroke-linecap="round" stroke-linejoin="round"/>
<path d="M664 548.038L671.748 545" stroke="#30C6FF" stroke-width="1.5" stroke-linecap="round" stroke-linejoin="round"/>
<path d="M664 557.92V548.038" stroke="#30C6FF" stroke-width="1.5" stroke-linecap="round" stroke-linejoin="round"/>
</g>
<rect x="644.75" y="530.67" width="38.5" height="38.5" rx="19.25" stroke="#30C6FF" stroke-width="1.5"/>
<rect x="668.75" y="487.67" width="38.5" height="38.5" rx="19.25" fill="#EAF9FF"/>
<g clip-path="url(#clip6_4_187430)">
<path d="M680.759 501.604L687.23 499.067C687.724 498.871 688.273 498.871 688.767 499.067L695.238 501.604C695.469 501.702 695.664 501.867 695.8 502.078C695.936 502.289 696.005 502.535 696 502.786V511.054C696.006 511.305 695.937 511.551 695.801 511.762C695.666 511.972 695.471 512.138 695.241 512.236L688.77 514.774C688.276 514.968 687.727 514.968 687.233 514.774L680.762 512.236C680.531 512.138 680.336 511.973 680.2 511.762C680.064 511.551 679.995 511.305 680 511.054V502.786C679.994 502.535 680.063 502.289 680.199 502.079C680.334 501.868 680.529 501.703 680.759 501.604V501.604Z" stroke="#30C6FF" stroke-width="1.5" stroke-linecap="round" stroke-linejoin="round"/>
<path d="M688 505.038L680.252 502" stroke="#30C6FF" stroke-width="1.5" stroke-linecap="round" stroke-linejoin="round"/>
<path d="M688 505.038L695.748 502" stroke="#30C6FF" stroke-width="1.5" stroke-linecap="round" stroke-linejoin="round"/>
<path d="M688 514.92V505.038" stroke="#30C6FF" stroke-width="1.5" stroke-linecap="round" stroke-linejoin="round"/>
</g>
<rect x="668.75" y="487.67" width="38.5" height="38.5" rx="19.25" stroke="#30C6FF" stroke-width="1.5"/>
<path d="M386.503 92.1007L432.334 161.943M432.334 161.943L482.435 95.7529M432.334 161.943L432.913 89.5233" stroke="#30C6FF" stroke-width="1.5" stroke-linecap="round" stroke-dasharray="5 5"/>
<rect x="413.75" y="65.6694" width="38.5" height="38.5" rx="19.25" fill="#EAF9FF"/>
<g clip-path="url(#clip7_4_187430)">
<path d="M425.759 79.6033L432.23 77.0661C432.724 76.8705 433.273 76.8705 433.767 77.0661L440.238 79.6033C440.469 79.7016 440.664 79.8668 440.8 80.0774C440.936 80.2881 441.005 80.5346 441 80.7852V89.0539C441.006 89.3041 440.937 89.5504 440.801 89.7611C440.666 89.9717 440.471 90.137 440.241 90.2358L433.77 92.7737C433.276 92.9678 432.727 92.9678 432.233 92.7737L425.762 90.2358C425.531 90.1375 425.336 89.9723 425.2 89.7616C425.064 89.551 424.995 89.3045 425 89.0539V80.7852C424.994 80.5349 425.063 80.2887 425.199 80.078C425.334 79.8674 425.529 79.7021 425.759 79.6033V79.6033Z" stroke="#30C6FF" stroke-width="1.5" stroke-linecap="round" stroke-linejoin="round"/>
<path d="M433 83.0374L425.252 79.9995" stroke="#30C6FF" stroke-width="1.5" stroke-linecap="round" stroke-linejoin="round"/>
<path d="M433 83.0374L440.748 79.9995" stroke="#30C6FF" stroke-width="1.5" stroke-linecap="round" stroke-linejoin="round"/>
<path d="M433 92.9193V83.0371" stroke="#30C6FF" stroke-width="1.5" stroke-linecap="round" stroke-linejoin="round"/>
</g>
<rect x="413.75" y="65.6694" width="38.5" height="38.5" rx="19.25" stroke="#30C6FF" stroke-width="1.5"/>
<rect x="360.75" y="70.6694" width="38.5" height="38.5" rx="19.25" fill="#EAF9FF"/>
<g clip-path="url(#clip8_4_187430)">
<path d="M372.759 84.6033L379.23 82.0661C379.724 81.8705 380.273 81.8705 380.767 82.0661L387.238 84.6033C387.469 84.7016 387.664 84.8668 387.8 85.0774C387.936 85.2881 388.005 85.5346 388 85.7852V94.0539C388.006 94.3041 387.937 94.5504 387.801 94.7611C387.666 94.9717 387.471 95.137 387.241 95.2358L380.77 97.7737C380.276 97.9678 379.727 97.9678 379.233 97.7737L372.762 95.2358C372.531 95.1375 372.336 94.9723 372.2 94.7616C372.064 94.551 371.995 94.3045 372 94.0539V85.7852C371.994 85.5349 372.063 85.2887 372.199 85.078C372.334 84.8674 372.529 84.7021 372.759 84.6033V84.6033Z" stroke="#30C6FF" stroke-width="1.5" stroke-linecap="round" stroke-linejoin="round"/>
<path d="M380 88.0374L372.252 84.9995" stroke="#30C6FF" stroke-width="1.5" stroke-linecap="round" stroke-linejoin="round"/>
<path d="M380 88.0374L387.748 84.9995" stroke="#30C6FF" stroke-width="1.5" stroke-linecap="round" stroke-linejoin="round"/>
<path d="M380 97.9193V88.0371" stroke="#30C6FF" stroke-width="1.5" stroke-linecap="round" stroke-linejoin="round"/>
</g>
<rect x="360.75" y="70.6694" width="38.5" height="38.5" rx="19.25" stroke="#30C6FF" stroke-width="1.5"/>
<rect x="466.75" y="70.6694" width="38.5" height="38.5" rx="19.25" fill="#EAF9FF"/>
<g clip-path="url(#clip9_4_187430)">
<path d="M478.759 84.6033L485.23 82.0661C485.724 81.8705 486.273 81.8705 486.767 82.0661L493.238 84.6033C493.469 84.7016 493.664 84.8668 493.8 85.0774C493.936 85.2881 494.005 85.5346 494 85.7852V94.0539C494.006 94.3041 493.937 94.5504 493.801 94.7611C493.666 94.9717 493.471 95.137 493.241 95.2358L486.77 97.7737C486.276 97.9678 485.727 97.9678 485.233 97.7737L478.762 95.2358C478.531 95.1375 478.336 94.9723 478.2 94.7616C478.064 94.551 477.995 94.3045 478 94.0539V85.7852C477.994 85.5349 478.063 85.2887 478.199 85.078C478.334 84.8674 478.529 84.7021 478.759 84.6033V84.6033Z" stroke="#30C6FF" stroke-width="1.5" stroke-linecap="round" stroke-linejoin="round"/>
<path d="M486 88.0374L478.252 84.9995" stroke="#30C6FF" stroke-width="1.5" stroke-linecap="round" stroke-linejoin="round"/>
<path d="M486 88.0374L493.748 84.9995" stroke="#30C6FF" stroke-width="1.5" stroke-linecap="round" stroke-linejoin="round"/>
<path d="M486 97.9193V88.0371" stroke="#30C6FF" stroke-width="1.5" stroke-linecap="round" stroke-linejoin="round"/>
</g>
<rect x="466.75" y="70.6694" width="38.5" height="38.5" rx="19.25" stroke="#30C6FF" stroke-width="1.5"/>
<rect x="583.75" y="484.67" width="46.5" height="46.5" rx="23.25" fill="#E6FBF7"/>
<g clip-path="url(#clip10_4_187430)">
<path d="M603 500.42H604.5V501.92C604.5 502.716 604.816 503.479 605.379 504.041C605.941 504.604 606.704 504.92 607.5 504.92C608.296 504.92 609.059 504.604 609.621 504.041C610.184 503.479 610.5 502.716 610.5 501.92V500.42" stroke="#01D9B1" stroke-width="1.5" stroke-linecap="round" stroke-linejoin="round"/>
<path d="M610.5 500.42H604.5L603.75 497.42L611.25 498.17L610.5 500.42Z" stroke="#01D9B1" stroke-width="1.5" stroke-linecap="round" stroke-linejoin="round"/>
<path d="M604.5 518.42V510.041L600.311 514.23C600.03 514.511 599.648 514.669 599.25 514.67C598.853 514.67 598.471 514.512 598.19 514.23C597.908 513.949 597.75 513.568 597.75 513.17C597.75 512.772 597.908 512.39 598.189 512.109L603.439 506.859C603.578 506.72 603.744 506.609 603.926 506.534C604.108 506.459 604.303 506.42 604.5 506.42H606L607.5 508.67L609 506.42C610.194 506.42 611.338 506.894 612.182 507.738C613.026 508.582 613.5 509.726 613.5 510.92V515.42C613.5 515.818 613.342 516.199 613.061 516.481C612.779 516.762 612.398 516.92 612 516.92C611.602 516.92 611.221 516.762 610.939 516.481C610.658 516.199 610.5 515.818 610.5 515.42V510.92" stroke="#01D9B1" stroke-width="1.5" stroke-linecap="round" stroke-linejoin="round"/>
<path d="M595.75 518.42H618.25" stroke="#01D9B1" stroke-width="1.5" stroke-linecap="round" stroke-linejoin="round"/>
</g>
<rect x="583.75" y="484.67" width="46.5" height="46.5" rx="23.25" stroke="#01D9B1" stroke-width="1.5"/>
<rect x="407.75" y="137.67" width="46.5" height="46.5" rx="23.25" fill="#E6FBF7"/>
<g clip-path="url(#clip11_4_187430)">
<path d="M427 153.42H428.5V154.92C428.5 155.716 428.816 156.479 429.379 157.041C429.941 157.604 430.704 157.92 431.5 157.92C432.296 157.92 433.059 157.604 433.621 157.041C434.184 156.479 434.5 155.716 434.5 154.92V153.42" stroke="#01D9B1" stroke-width="1.5" stroke-linecap="round" stroke-linejoin="round"/>
<path d="M434.5 153.42H428.5L427.75 150.42L435.25 151.17L434.5 153.42Z" stroke="#01D9B1" stroke-width="1.5" stroke-linecap="round" stroke-linejoin="round"/>
<path d="M428.5 171.42V163.041L424.311 167.23C424.03 167.511 423.648 167.669 423.25 167.67C422.853 167.67 422.471 167.512 422.19 167.23C421.908 166.949 421.75 166.568 421.75 166.17C421.75 165.772 421.908 165.39 422.189 165.109L427.439 159.859C427.578 159.72 427.744 159.609 427.926 159.534C428.108 159.459 428.303 159.42 428.5 159.42H430L431.5 161.67L433 159.42C434.194 159.42 435.338 159.894 436.182 160.738C437.026 161.582 437.5 162.726 437.5 163.92V168.42C437.5 168.818 437.342 169.199 437.061 169.481C436.779 169.762 436.398 169.92 436 169.92C435.602 169.92 435.221 169.762 434.939 169.481C434.658 169.199 434.5 168.818 434.5 168.42V163.92" stroke="#01D9B1" stroke-width="1.5" stroke-linecap="round" stroke-linejoin="round"/>
<path d="M419.75 171.42H442.25" stroke="#01D9B1" stroke-width="1.5" stroke-linecap="round" stroke-linejoin="round"/>
</g>
<rect x="407.75" y="137.67" width="46.5" height="46.5" rx="23.25" stroke="#01D9B1" stroke-width="1.5"/>
<rect x="407.75" y="249.67" width="46.5" height="46.5" rx="23.25" fill="#F1EAFE"/>
<path d="M437.807 278.5C436.596 280.264 434.879 281.619 432.883 282.387L431.958 282.742C431.341 282.979 430.659 282.979 430.043 282.742L429.118 282.387C427.121 281.619 425.404 280.264 424.193 278.5C422.982 276.737 422.334 274.648 422.334 272.509V265.741C422.332 265.486 422.404 265.237 422.541 265.022C422.678 264.807 422.874 264.636 423.106 264.53C425.594 263.444 428.285 262.896 431 262.921C433.716 262.896 436.406 263.444 438.895 264.53C439.127 264.636 439.323 264.807 439.46 265.022C439.596 265.237 439.668 265.486 439.667 265.741" stroke="#6E2DFA" stroke-width="1.5" stroke-linecap="round" stroke-linejoin="round"/>
<path d="M428.445 271.587H438.112M438.112 271.587L434.112 267.587M438.112 271.587L434.112 275.587" stroke="#6E2DFA" stroke-width="1.5" stroke-linecap="round"/>
<rect x="407.75" y="249.67" width="46.5" height="46.5" rx="23.25" stroke="#6E2DFA" stroke-width="1.5"/>
<rect x="495.75" y="415.67" width="46.5" height="46.5" rx="23.25" fill="#F1EAFE"/>
<path d="M525.807 444.5C524.596 446.264 522.879 447.619 520.883 448.387L519.958 448.742C519.341 448.979 518.659 448.979 518.043 448.742L517.118 448.387C515.121 447.619 513.404 446.264 512.193 444.5C510.982 442.737 510.334 440.648 510.334 438.509V431.741C510.332 431.486 510.404 431.237 510.541 431.022C510.678 430.807 510.874 430.636 511.106 430.53C513.594 429.444 516.285 428.896 519 428.921C521.716 428.896 524.406 429.444 526.895 430.53C527.127 430.636 527.323 430.807 527.46 431.022C527.596 431.237 527.668 431.486 527.667 431.741" stroke="#6E2DFA" stroke-width="1.5" stroke-linecap="round" stroke-linejoin="round"/>
<path d="M516.445 437.587H526.112M526.112 437.587L522.112 433.587M526.112 437.587L522.112 441.587" stroke="#6E2DFA" stroke-width="1.5" stroke-linecap="round"/>
<rect x="495.75" y="415.67" width="46.5" height="46.5" rx="23.25" stroke="#6E2DFA" stroke-width="1.5"/>
<rect x="392.5" y="470.42" width="77" height="23" rx="7.5" fill="#F1EAFE"/>
<path d="M405.388 486.42H407.176L405.316 483.252C406.276 482.808 406.936 481.86 406.936 480.804C406.936 479.268 405.688 478.02 404.14 478.02H400.78V486.42H402.436V483.504H403.696L405.388 486.42ZM402.436 479.568H404.14C404.764 479.568 405.28 480.108 405.28 480.804C405.28 481.5 404.764 482.052 404.14 482.052H402.436V479.568ZM410.63 486.588C412.394 486.588 413.81 485.208 413.81 483.42C413.81 481.632 412.394 480.252 410.63 480.252C408.866 480.252 407.462 481.632 407.462 483.42C407.462 485.208 408.866 486.588 410.63 486.588ZM410.63 485.076C409.718 485.076 409.01 484.392 409.01 483.42C409.01 482.448 409.718 481.764 410.63 481.764C411.554 481.764 412.262 482.448 412.262 483.42C412.262 484.392 411.554 485.076 410.63 485.076ZM417.755 486.588C419.519 486.588 420.935 485.208 420.935 483.42C420.935 481.632 419.519 480.252 417.755 480.252C415.991 480.252 414.587 481.632 414.587 483.42C414.587 485.208 415.991 486.588 417.755 486.588ZM417.755 485.076C416.843 485.076 416.135 484.392 416.135 483.42C416.135 482.448 416.843 481.764 417.755 481.764C418.679 481.764 419.387 482.448 419.387 483.42C419.387 484.392 418.679 485.076 417.755 485.076ZM425.328 481.908V480.42H423.972V478.74L422.424 479.208V480.42H421.38V481.908H422.424V484.404C422.424 486.024 423.156 486.66 425.328 486.42V485.016C424.44 485.064 423.972 485.052 423.972 484.404V481.908H425.328ZM433.569 486.588C435.117 486.588 436.473 485.808 437.181 484.608L435.753 483.78C435.357 484.512 434.529 484.968 433.569 484.968C431.925 484.968 430.845 483.828 430.845 482.22C430.845 480.6 431.925 479.46 433.569 479.46C434.529 479.46 435.345 479.916 435.753 480.66L437.181 479.832C436.461 478.632 435.105 477.852 433.569 477.852C431.025 477.852 429.201 479.76 429.201 482.22C429.201 484.668 431.025 486.588 433.569 486.588ZM441.556 480.252C440.752 480.252 440.128 480.552 439.768 481.092V478.02H438.22V486.42H439.768V483.18C439.768 482.136 440.332 481.692 441.088 481.692C441.784 481.692 442.276 482.112 442.276 482.928V486.42H443.824V482.736C443.824 481.14 442.828 480.252 441.556 480.252ZM449.706 480.42V481.128C449.274 480.588 448.626 480.252 447.75 480.252C446.154 480.252 444.833 481.632 444.833 483.42C444.833 485.208 446.154 486.588 447.75 486.588C448.626 486.588 449.274 486.252 449.706 485.712V486.42H451.254V480.42H449.706ZM448.038 485.112C447.09 485.112 446.382 484.428 446.382 483.42C446.382 482.412 447.09 481.728 448.038 481.728C448.998 481.728 449.706 482.412 449.706 483.42C449.706 484.428 448.998 485.112 448.038 485.112ZM453.425 479.7C453.953 479.7 454.385 479.268 454.385 478.752C454.385 478.236 453.953 477.792 453.425 477.792C452.909 477.792 452.477 478.236 452.477 478.752C452.477 479.268 452.909 479.7 453.425 479.7ZM452.657 486.42H454.205V480.42H452.657V486.42ZM458.958 480.252C458.154 480.252 457.53 480.552 457.17 481.092V480.42H455.622V486.42H457.17V483.18C457.17 482.136 457.734 481.692 458.49 481.692C459.186 481.692 459.678 482.112 459.678 482.928V486.42H461.226V482.736C461.226 481.14 460.23 480.252 458.958 480.252Z" fill="#6E2DFA"/>
<rect x="392.5" y="470.42" width="77" height="23" rx="7.5" stroke="#F1EAFE"/>
<rect x="376.5" y="652.42" width="123" height="23" rx="7.5" fill="#EAF9FF"/>
<path d="M387.971 660.02H384.839V668.42H386.495V665.66H387.971C389.591 665.66 390.839 664.412 390.839 662.84C390.839 661.268 389.591 660.02 387.971 660.02ZM387.971 664.112H386.495V661.568H387.971C388.679 661.568 389.195 662.108 389.195 662.84C389.195 663.56 388.679 664.112 387.971 664.112ZM394.302 668.588C396.066 668.588 397.482 667.208 397.482 665.42C397.482 663.632 396.066 662.252 394.302 662.252C392.538 662.252 391.134 663.632 391.134 665.42C391.134 667.208 392.538 668.588 394.302 668.588ZM394.302 667.076C393.39 667.076 392.682 666.392 392.682 665.42C392.682 664.448 393.39 663.764 394.302 663.764C395.226 663.764 395.934 664.448 395.934 665.42C395.934 666.392 395.226 667.076 394.302 667.076ZM398.571 668.42H400.119V659.66H398.571V668.42ZM405.448 662.42L404.116 666.452L402.556 662.42H400.864L403.324 668.228C403.036 669.032 402.604 669.392 401.752 669.38V670.82C403.276 670.904 404.296 670.148 404.92 668.42L407.104 662.42H405.448ZM412.202 662.42V663.164C411.782 662.6 411.134 662.252 410.282 662.252C408.578 662.252 407.294 663.644 407.294 665.324C407.294 667.016 408.578 668.396 410.282 668.396C411.134 668.396 411.782 668.048 412.202 667.484V668.132C412.202 669.08 411.602 669.608 410.63 669.608C409.706 669.608 409.31 669.236 409.058 668.768L407.738 669.524C408.266 670.496 409.298 670.988 410.582 670.988C412.166 670.988 413.714 670.1 413.714 668.132V662.42H412.202ZM410.522 666.968C409.55 666.968 408.842 666.284 408.842 665.324C408.842 664.376 409.55 663.692 410.522 663.692C411.494 663.692 412.202 664.376 412.202 665.324C412.202 666.284 411.494 666.968 410.522 666.968ZM417.974 668.588C419.738 668.588 421.154 667.208 421.154 665.42C421.154 663.632 419.738 662.252 417.974 662.252C416.21 662.252 414.806 663.632 414.806 665.42C414.806 667.208 416.21 668.588 417.974 668.588ZM417.974 667.076C417.062 667.076 416.354 666.392 416.354 665.42C416.354 664.448 417.062 663.764 417.974 663.764C418.898 663.764 419.606 664.448 419.606 665.42C419.606 666.392 418.898 667.076 417.974 667.076ZM425.579 662.252C424.775 662.252 424.151 662.552 423.791 663.092V662.42H422.243V668.42H423.791V665.18C423.791 664.136 424.355 663.692 425.111 663.692C425.807 663.692 426.299 664.112 426.299 664.928V668.42H427.847V664.736C427.847 663.14 426.851 662.252 425.579 662.252ZM435.109 668.588C436.897 668.588 438.157 667.628 438.157 666.056C438.157 664.34 436.741 663.896 435.409 663.476C434.137 663.092 433.813 662.816 433.813 662.3C433.813 661.82 434.221 661.46 434.917 661.46C435.769 661.46 436.225 661.904 436.525 662.54L437.917 661.736C437.353 660.56 436.297 659.852 434.917 659.852C433.477 659.852 432.157 660.764 432.157 662.348C432.157 663.944 433.405 664.484 434.689 664.856C435.937 665.216 436.501 665.456 436.501 666.08C436.501 666.548 436.153 666.968 435.157 666.968C434.113 666.968 433.525 666.464 433.225 665.684L431.809 666.512C432.265 667.76 433.393 668.588 435.109 668.588ZM439.933 661.7C440.461 661.7 440.893 661.268 440.893 660.752C440.893 660.236 440.461 659.792 439.933 659.792C439.417 659.792 438.985 660.236 438.985 660.752C438.985 661.268 439.417 661.7 439.933 661.7ZM439.165 668.42H440.713V662.42H439.165V668.42ZM446.678 660.02V663.128C446.246 662.576 445.61 662.252 444.734 662.252C443.126 662.252 441.806 663.632 441.806 665.42C441.806 667.208 443.126 668.588 444.734 668.588C445.61 668.588 446.246 668.264 446.678 667.712V668.42H448.226V660.02H446.678ZM445.022 667.112C444.062 667.112 443.354 666.428 443.354 665.42C443.354 664.412 444.062 663.728 445.022 663.728C445.97 663.728 446.678 664.412 446.678 665.42C446.678 666.428 445.97 667.112 445.022 667.112ZM450.95 666.056H455.474C455.51 665.852 455.534 665.648 455.534 665.42C455.534 663.656 454.274 662.252 452.498 662.252C450.614 662.252 449.33 663.632 449.33 665.42C449.33 667.208 450.602 668.588 452.618 668.588C453.77 668.588 454.67 668.12 455.234 667.304L453.986 666.584C453.722 666.932 453.242 667.184 452.642 667.184C451.826 667.184 451.166 666.848 450.95 666.056ZM450.926 664.856C451.106 664.088 451.67 663.644 452.498 663.644C453.146 663.644 453.794 663.992 453.986 664.856H450.926ZM463.67 668.588C465.218 668.588 466.574 667.808 467.282 666.608L465.854 665.78C465.458 666.512 464.63 666.968 463.67 666.968C462.026 666.968 460.946 665.828 460.946 664.22C460.946 662.6 462.026 661.46 463.67 661.46C464.63 661.46 465.446 661.916 465.854 662.66L467.282 661.832C466.562 660.632 465.206 659.852 463.67 659.852C461.126 659.852 459.302 661.76 459.302 664.22C459.302 666.668 461.126 668.588 463.67 668.588ZM471.657 662.252C470.853 662.252 470.229 662.552 469.869 663.092V660.02H468.321V668.42H469.869V665.18C469.869 664.136 470.433 663.692 471.189 663.692C471.885 663.692 472.377 664.112 472.377 664.928V668.42H473.925V664.736C473.925 663.14 472.929 662.252 471.657 662.252ZM479.807 662.42V663.128C479.375 662.588 478.727 662.252 477.851 662.252C476.255 662.252 474.935 663.632 474.935 665.42C474.935 667.208 476.255 668.588 477.851 668.588C478.727 668.588 479.375 668.252 479.807 667.712V668.42H481.355V662.42H479.807ZM478.139 667.112C477.191 667.112 476.483 666.428 476.483 665.42C476.483 664.412 477.191 663.728 478.139 663.728C479.099 663.728 479.807 664.412 479.807 665.42C479.807 666.428 479.099 667.112 478.139 667.112ZM483.527 661.7C484.055 661.7 484.487 661.268 484.487 660.752C484.487 660.236 484.055 659.792 483.527 659.792C483.011 659.792 482.579 660.236 482.579 660.752C482.579 661.268 483.011 661.7 483.527 661.7ZM482.759 668.42H484.307V662.42H482.759V668.42ZM489.06 662.252C488.256 662.252 487.632 662.552 487.272 663.092V662.42H485.724V668.42H487.272V665.18C487.272 664.136 487.836 663.692 488.592 663.692C489.288 663.692 489.78 664.112 489.78 664.928V668.42H491.328V664.736C491.328 663.14 490.332 662.252 489.06 662.252Z" fill="#30C6FF"/>
<rect x="376.5" y="652.42" width="123" height="23" rx="7.5" stroke="#EAF9FF"/>
<path d="M312.43 476.92H309.65V483.92H312.43C314.36 483.92 315.8 482.39 315.8 480.42C315.8 478.45 314.36 476.92 312.43 476.92ZM312.43 482.6H311.03V478.24H312.43C313.64 478.24 314.48 479.13 314.48 480.42C314.48 481.71 313.64 482.6 312.43 482.6ZM317.809 481.95H321.579C321.609 481.78 321.629 481.61 321.629 481.42C321.629 479.95 320.579 478.78 319.099 478.78C317.529 478.78 316.459 479.93 316.459 481.42C316.459 482.91 317.519 484.06 319.199 484.06C320.159 484.06 320.909 483.67 321.379 482.99L320.339 482.39C320.119 482.68 319.719 482.89 319.219 482.89C318.539 482.89 317.989 482.61 317.809 481.95ZM317.789 480.95C317.939 480.31 318.409 479.94 319.099 479.94C319.639 479.94 320.179 480.23 320.339 480.95H317.789ZM325.439 478.78C324.709 478.78 324.179 479.05 323.819 479.51V478.92H322.529V485.92H323.819V483.33C324.179 483.79 324.709 484.06 325.439 484.06C326.779 484.06 327.879 482.91 327.879 481.42C327.879 479.93 326.779 478.78 325.439 478.78ZM325.199 482.83C324.409 482.83 323.819 482.26 323.819 481.42C323.819 480.58 324.409 480.01 325.199 480.01C325.999 480.01 326.589 480.58 326.589 481.42C326.589 482.26 325.999 482.83 325.199 482.83ZM331.169 484.06C332.639 484.06 333.819 482.91 333.819 481.42C333.819 479.93 332.639 478.78 331.169 478.78C329.699 478.78 328.529 479.93 328.529 481.42C328.529 482.91 329.699 484.06 331.169 484.06ZM331.169 482.8C330.409 482.8 329.819 482.23 329.819 481.42C329.819 480.61 330.409 480.04 331.169 480.04C331.939 480.04 332.529 480.61 332.529 481.42C332.529 482.23 331.939 482.8 331.169 482.8ZM335.809 480.34C335.809 480.07 336.069 479.93 336.389 479.93C336.759 479.93 337.039 480.12 337.189 480.44L338.289 479.84C337.899 479.15 337.199 478.78 336.389 478.78C335.359 478.78 334.489 479.35 334.489 480.37C334.489 482.13 337.069 481.73 337.069 482.46C337.069 482.75 336.789 482.89 336.379 482.89C335.879 482.89 335.539 482.65 335.399 482.24L334.279 482.87C334.639 483.64 335.379 484.06 336.379 484.06C337.449 484.06 338.389 483.54 338.389 482.46C338.389 480.62 335.809 481.08 335.809 480.34ZM339.859 478.32C340.299 478.32 340.659 477.96 340.659 477.53C340.659 477.1 340.299 476.73 339.859 476.73C339.429 476.73 339.069 477.1 339.069 477.53C339.069 477.96 339.429 478.32 339.859 478.32ZM339.219 483.92H340.509V478.92H339.219V483.92ZM344.55 480.16V478.92H343.42V477.52L342.13 477.91V478.92H341.26V480.16H342.13V482.24C342.13 483.59 342.74 484.12 344.55 483.92V482.75C343.81 482.79 343.42 482.78 343.42 482.24V480.16H344.55ZM313.88 492.29C314.29 491.96 314.54 491.49 314.54 490.89C314.54 489.72 313.59 488.92 312.41 488.92H309.65V495.92H312.62C313.83 495.92 314.8 495.09 314.8 493.89C314.8 493.16 314.44 492.61 313.88 492.29ZM312.41 490.21C312.85 490.21 313.16 490.54 313.16 490.98C313.16 491.42 312.84 491.75 312.41 491.75H311.03V490.21H312.41ZM312.62 494.63H311.03V492.98H312.62C313.09 492.98 313.43 493.33 313.43 493.8C313.43 494.28 313.09 494.63 312.62 494.63ZM316.935 491.78V490.92H315.645V495.92H316.935V493.53C316.935 492.48 317.785 492.18 318.455 492.26V490.82C317.825 490.82 317.195 491.1 316.935 491.78ZM319.849 490.32C320.289 490.32 320.649 489.96 320.649 489.53C320.649 489.1 320.289 488.73 319.849 488.73C319.419 488.73 319.059 489.1 319.059 489.53C319.059 489.96 319.419 490.32 319.849 490.32ZM319.209 495.92H320.499V490.92H319.209V495.92ZM325.47 488.92V491.51C325.11 491.05 324.58 490.78 323.85 490.78C322.51 490.78 321.41 491.93 321.41 493.42C321.41 494.91 322.51 496.06 323.85 496.06C324.58 496.06 325.11 495.79 325.47 495.33V495.92H326.76V488.92H325.47ZM324.09 494.83C323.29 494.83 322.7 494.26 322.7 493.42C322.7 492.58 323.29 492.01 324.09 492.01C324.88 492.01 325.47 492.58 325.47 493.42C325.47 494.26 324.88 494.83 324.09 494.83ZM331.77 490.92V491.54C331.42 491.07 330.88 490.78 330.17 490.78C328.75 490.78 327.68 491.94 327.68 493.34C327.68 494.75 328.75 495.9 330.17 495.9C330.88 495.9 331.42 495.61 331.77 495.14V495.68C331.77 496.47 331.27 496.91 330.46 496.91C329.69 496.91 329.36 496.6 329.15 496.21L328.05 496.84C328.49 497.65 329.35 498.06 330.42 498.06C331.74 498.06 333.03 497.32 333.03 495.68V490.92H331.77ZM330.37 494.71C329.56 494.71 328.97 494.14 328.97 493.34C328.97 492.55 329.56 491.98 330.37 491.98C331.18 491.98 331.77 492.55 331.77 493.34C331.77 494.14 331.18 494.71 330.37 494.71ZM335.289 493.95H339.059C339.089 493.78 339.109 493.61 339.109 493.42C339.109 491.95 338.059 490.78 336.579 490.78C335.009 490.78 333.939 491.93 333.939 493.42C333.939 494.91 334.999 496.06 336.679 496.06C337.639 496.06 338.389 495.67 338.859 494.99L337.819 494.39C337.599 494.68 337.199 494.89 336.699 494.89C336.019 494.89 335.469 494.61 335.289 493.95ZM335.269 492.95C335.419 492.31 335.889 491.94 336.579 491.94C337.119 491.94 337.659 492.23 337.819 492.95H335.269Z" fill="#9D98B0"/>
<path d="M400.496 226.92H397.716V233.92H400.496C402.426 233.92 403.866 232.39 403.866 230.42C403.866 228.45 402.426 226.92 400.496 226.92ZM400.496 232.6H399.096V228.24H400.496C401.706 228.24 402.546 229.13 402.546 230.42C402.546 231.71 401.706 232.6 400.496 232.6ZM405.875 231.95H409.645C409.675 231.78 409.695 231.61 409.695 231.42C409.695 229.95 408.645 228.78 407.165 228.78C405.595 228.78 404.525 229.93 404.525 231.42C404.525 232.91 405.585 234.06 407.265 234.06C408.225 234.06 408.975 233.67 409.445 232.99L408.405 232.39C408.185 232.68 407.785 232.89 407.285 232.89C406.605 232.89 406.055 232.61 405.875 231.95ZM405.855 230.95C406.005 230.31 406.475 229.94 407.165 229.94C407.705 229.94 408.245 230.23 408.405 230.95H405.855ZM413.506 228.78C412.776 228.78 412.246 229.05 411.886 229.51V228.92H410.596V235.92H411.886V233.33C412.246 233.79 412.776 234.06 413.506 234.06C414.846 234.06 415.946 232.91 415.946 231.42C415.946 229.93 414.846 228.78 413.506 228.78ZM413.266 232.83C412.476 232.83 411.886 232.26 411.886 231.42C411.886 230.58 412.476 230.01 413.266 230.01C414.066 230.01 414.656 230.58 414.656 231.42C414.656 232.26 414.066 232.83 413.266 232.83ZM419.236 234.06C420.706 234.06 421.886 232.91 421.886 231.42C421.886 229.93 420.706 228.78 419.236 228.78C417.766 228.78 416.596 229.93 416.596 231.42C416.596 232.91 417.766 234.06 419.236 234.06ZM419.236 232.8C418.476 232.8 417.886 232.23 417.886 231.42C417.886 230.61 418.476 230.04 419.236 230.04C420.006 230.04 420.596 230.61 420.596 231.42C420.596 232.23 420.006 232.8 419.236 232.8ZM423.876 230.34C423.876 230.07 424.136 229.93 424.456 229.93C424.826 229.93 425.106 230.12 425.256 230.44L426.356 229.84C425.966 229.15 425.266 228.78 424.456 228.78C423.426 228.78 422.556 229.35 422.556 230.37C422.556 232.13 425.136 231.73 425.136 232.46C425.136 232.75 424.856 232.89 424.446 232.89C423.946 232.89 423.606 232.65 423.466 232.24L422.346 232.87C422.706 233.64 423.446 234.06 424.446 234.06C425.516 234.06 426.456 233.54 426.456 232.46C426.456 230.62 423.876 231.08 423.876 230.34ZM427.925 228.32C428.365 228.32 428.725 227.96 428.725 227.53C428.725 227.1 428.365 226.73 427.925 226.73C427.495 226.73 427.135 227.1 427.135 227.53C427.135 227.96 427.495 228.32 427.925 228.32ZM427.285 233.92H428.575V228.92H427.285V233.92ZM432.616 230.16V228.92H431.486V227.52L430.196 227.91V228.92H429.326V230.16H430.196V232.24C430.196 233.59 430.806 234.12 432.616 233.92V232.75C431.876 232.79 431.486 232.78 431.486 232.24V230.16H432.616ZM440.394 230.29C440.804 229.96 441.054 229.49 441.054 228.89C441.054 227.72 440.104 226.92 438.924 226.92H436.164V233.92H439.134C440.344 233.92 441.314 233.09 441.314 231.89C441.314 231.16 440.954 230.61 440.394 230.29ZM438.924 228.21C439.364 228.21 439.674 228.54 439.674 228.98C439.674 229.42 439.354 229.75 438.924 229.75H437.544V228.21H438.924ZM439.134 232.63H437.544V230.98H439.134C439.604 230.98 439.944 231.33 439.944 231.8C439.944 232.28 439.604 232.63 439.134 232.63ZM443.448 229.78V228.92H442.158V233.92H443.448V231.53C443.448 230.48 444.298 230.18 444.968 230.26V228.82C444.338 228.82 443.708 229.1 443.448 229.78ZM446.363 228.32C446.803 228.32 447.163 227.96 447.163 227.53C447.163 227.1 446.803 226.73 446.363 226.73C445.933 226.73 445.573 227.1 445.573 227.53C445.573 227.96 445.933 228.32 446.363 228.32ZM445.723 233.92H447.013V228.92H445.723V233.92ZM451.984 226.92V229.51C451.624 229.05 451.094 228.78 450.364 228.78C449.024 228.78 447.924 229.93 447.924 231.42C447.924 232.91 449.024 234.06 450.364 234.06C451.094 234.06 451.624 233.79 451.984 233.33V233.92H453.274V226.92H451.984ZM450.604 232.83C449.804 232.83 449.214 232.26 449.214 231.42C449.214 230.58 449.804 230.01 450.604 230.01C451.394 230.01 451.984 230.58 451.984 231.42C451.984 232.26 451.394 232.83 450.604 232.83ZM458.283 228.92V229.54C457.933 229.07 457.393 228.78 456.683 228.78C455.263 228.78 454.193 229.94 454.193 231.34C454.193 232.75 455.263 233.9 456.683 233.9C457.393 233.9 457.933 233.61 458.283 233.14V233.68C458.283 234.47 457.783 234.91 456.973 234.91C456.203 234.91 455.873 234.6 455.663 234.21L454.563 234.84C455.003 235.65 455.863 236.06 456.933 236.06C458.253 236.06 459.543 235.32 459.543 233.68V228.92H458.283ZM456.883 232.71C456.073 232.71 455.483 232.14 455.483 231.34C455.483 230.55 456.073 229.98 456.883 229.98C457.693 229.98 458.283 230.55 458.283 231.34C458.283 232.14 457.693 232.71 456.883 232.71ZM461.803 231.95H465.573C465.603 231.78 465.623 231.61 465.623 231.42C465.623 229.95 464.573 228.78 463.093 228.78C461.523 228.78 460.453 229.93 460.453 231.42C460.453 232.91 461.513 234.06 463.193 234.06C464.153 234.06 464.903 233.67 465.373 232.99L464.333 232.39C464.113 232.68 463.713 232.89 463.213 232.89C462.533 232.89 461.983 232.61 461.803 231.95ZM461.783 230.95C461.933 230.31 462.403 229.94 463.093 229.94C463.633 229.94 464.173 230.23 464.333 230.95H461.783Z" fill="#9D98B0"/>
<path d="M519.483 476.92H516.703V483.92H519.483C521.413 483.92 522.853 482.39 522.853 480.42C522.853 478.45 521.413 476.92 519.483 476.92ZM519.483 482.6H518.083V478.24H519.483C520.693 478.24 521.533 479.13 521.533 480.42C521.533 481.71 520.693 482.6 519.483 482.6ZM524.862 481.95H528.632C528.662 481.78 528.682 481.61 528.682 481.42C528.682 479.95 527.632 478.78 526.152 478.78C524.582 478.78 523.512 479.93 523.512 481.42C523.512 482.91 524.572 484.06 526.252 484.06C527.212 484.06 527.962 483.67 528.432 482.99L527.392 482.39C527.172 482.68 526.772 482.89 526.272 482.89C525.592 482.89 525.042 482.61 524.862 481.95ZM524.842 480.95C524.992 480.31 525.462 479.94 526.152 479.94C526.692 479.94 527.232 480.23 527.392 480.95H524.842ZM532.492 478.78C531.762 478.78 531.232 479.05 530.872 479.51V478.92H529.582V485.92H530.872V483.33C531.232 483.79 531.762 484.06 532.492 484.06C533.832 484.06 534.932 482.91 534.932 481.42C534.932 479.93 533.832 478.78 532.492 478.78ZM532.252 482.83C531.462 482.83 530.872 482.26 530.872 481.42C530.872 480.58 531.462 480.01 532.252 480.01C533.052 480.01 533.642 480.58 533.642 481.42C533.642 482.26 533.052 482.83 532.252 482.83ZM538.222 484.06C539.692 484.06 540.872 482.91 540.872 481.42C540.872 479.93 539.692 478.78 538.222 478.78C536.752 478.78 535.582 479.93 535.582 481.42C535.582 482.91 536.752 484.06 538.222 484.06ZM538.222 482.8C537.462 482.8 536.872 482.23 536.872 481.42C536.872 480.61 537.462 480.04 538.222 480.04C538.992 480.04 539.582 480.61 539.582 481.42C539.582 482.23 538.992 482.8 538.222 482.8ZM542.862 480.34C542.862 480.07 543.122 479.93 543.442 479.93C543.812 479.93 544.092 480.12 544.242 480.44L545.342 479.84C544.952 479.15 544.252 478.78 543.442 478.78C542.412 478.78 541.542 479.35 541.542 480.37C541.542 482.13 544.122 481.73 544.122 482.46C544.122 482.75 543.842 482.89 543.432 482.89C542.932 482.89 542.592 482.65 542.452 482.24L541.332 482.87C541.692 483.64 542.432 484.06 543.432 484.06C544.502 484.06 545.442 483.54 545.442 482.46C545.442 480.62 542.862 481.08 542.862 480.34ZM546.912 478.32C547.352 478.32 547.712 477.96 547.712 477.53C547.712 477.1 547.352 476.73 546.912 476.73C546.482 476.73 546.122 477.1 546.122 477.53C546.122 477.96 546.482 478.32 546.912 478.32ZM546.272 483.92H547.562V478.92H546.272V483.92ZM551.602 480.16V478.92H550.472V477.52L549.182 477.91V478.92H548.312V480.16H549.182V482.24C549.182 483.59 549.792 484.12 551.602 483.92V482.75C550.862 482.79 550.472 482.78 550.472 482.24V480.16H551.602ZM526.46 492.29C526.87 491.96 527.12 491.49 527.12 490.89C527.12 489.72 526.17 488.92 524.99 488.92H522.23V495.92H525.2C526.41 495.92 527.38 495.09 527.38 493.89C527.38 493.16 527.02 492.61 526.46 492.29ZM524.99 490.21C525.43 490.21 525.74 490.54 525.74 490.98C525.74 491.42 525.42 491.75 524.99 491.75H523.61V490.21H524.99ZM525.2 494.63H523.61V492.98H525.2C525.67 492.98 526.01 493.33 526.01 493.8C526.01 494.28 525.67 494.63 525.2 494.63ZM529.515 491.78V490.92H528.225V495.92H529.515V493.53C529.515 492.48 530.365 492.18 531.035 492.26V490.82C530.405 490.82 529.775 491.1 529.515 491.78ZM532.429 490.32C532.869 490.32 533.229 489.96 533.229 489.53C533.229 489.1 532.869 488.73 532.429 488.73C531.999 488.73 531.639 489.1 531.639 489.53C531.639 489.96 531.999 490.32 532.429 490.32ZM531.789 495.92H533.079V490.92H531.789V495.92ZM538.05 488.92V491.51C537.69 491.05 537.16 490.78 536.43 490.78C535.09 490.78 533.99 491.93 533.99 493.42C533.99 494.91 535.09 496.06 536.43 496.06C537.16 496.06 537.69 495.79 538.05 495.33V495.92H539.34V488.92H538.05ZM536.67 494.83C535.87 494.83 535.28 494.26 535.28 493.42C535.28 492.58 535.87 492.01 536.67 492.01C537.46 492.01 538.05 492.58 538.05 493.42C538.05 494.26 537.46 494.83 536.67 494.83ZM544.35 490.92V491.54C544 491.07 543.46 490.78 542.75 490.78C541.33 490.78 540.26 491.94 540.26 493.34C540.26 494.75 541.33 495.9 542.75 495.9C543.46 495.9 544 495.61 544.35 495.14V495.68C544.35 496.47 543.85 496.91 543.04 496.91C542.27 496.91 541.94 496.6 541.73 496.21L540.63 496.84C541.07 497.65 541.93 498.06 543 498.06C544.32 498.06 545.61 497.32 545.61 495.68V490.92H544.35ZM542.95 494.71C542.14 494.71 541.55 494.14 541.55 493.34C541.55 492.55 542.14 491.98 542.95 491.98C543.76 491.98 544.35 492.55 544.35 493.34C544.35 494.14 543.76 494.71 542.95 494.71ZM547.869 493.95H551.639C551.669 493.78 551.689 493.61 551.689 493.42C551.689 491.95 550.639 490.78 549.159 490.78C547.589 490.78 546.519 491.93 546.519 493.42C546.519 494.91 547.579 496.06 549.259 496.06C550.219 496.06 550.969 495.67 551.439 494.99L550.399 494.39C550.179 494.68 549.779 494.89 549.279 494.89C548.599 494.89 548.049 494.61 547.869 493.95ZM547.849 492.95C547.999 492.31 548.469 491.94 549.159 491.94C549.699 491.94 550.239 492.23 550.399 492.95H547.849Z" fill="#9D98B0"/>
<rect x="345.5" y="564.42" width="171" height="33" rx="7.5" fill="#E6FBF7"/>
<path d="M353.729 572.856H355.409L355.889 569.52H354.629L353.729 572.856ZM355.949 572.856H357.629L358.109 569.52H356.849L355.949 572.856ZM362.607 569.52H359.475V577.92H361.131V575.16H362.607C364.227 575.16 365.475 573.912 365.475 572.34C365.475 570.768 364.227 569.52 362.607 569.52ZM362.607 573.612H361.131V571.068H362.607C363.315 571.068 363.831 571.608 363.831 572.34C363.831 573.06 363.315 573.612 362.607 573.612ZM370.441 571.92V575.16C370.441 576.204 369.877 576.648 369.121 576.648C368.425 576.648 367.933 576.228 367.933 575.412V571.92H366.385V575.604C366.385 577.2 367.381 578.088 368.653 578.088C369.457 578.088 370.081 577.788 370.441 577.248V577.92H371.989V571.92H370.441ZM376.899 571.752C376.023 571.752 375.387 572.076 374.955 572.628V569.52H373.407V577.92H374.955V577.212C375.387 577.764 376.023 578.088 376.899 578.088C378.507 578.088 379.827 576.708 379.827 574.92C379.827 573.132 378.507 571.752 376.899 571.752ZM376.611 576.612C375.663 576.612 374.955 575.928 374.955 574.92C374.955 573.912 375.663 573.228 376.611 573.228C377.571 573.228 378.279 573.912 378.279 574.92C378.279 575.928 377.571 576.612 376.611 576.612ZM380.919 577.92H382.467V569.16H380.919V577.92ZM384.652 571.2C385.18 571.2 385.612 570.768 385.612 570.252C385.612 569.736 385.18 569.292 384.652 569.292C384.136 569.292 383.704 569.736 383.704 570.252C383.704 570.768 384.136 571.2 384.652 571.2ZM383.884 577.92H385.432V571.92H383.884V577.92ZM389.705 578.088C390.881 578.088 391.901 577.464 392.417 576.528L391.073 575.76C390.833 576.252 390.317 576.552 389.693 576.552C388.769 576.552 388.085 575.868 388.085 574.92C388.085 573.96 388.769 573.276 389.693 573.276C390.305 573.276 390.821 573.588 391.061 574.08L392.393 573.3C391.901 572.376 390.881 571.752 389.705 571.752C387.881 571.752 386.537 573.132 386.537 574.92C386.537 576.708 387.881 578.088 389.705 578.088ZM394.842 569.508H393.162L392.682 572.844H393.942L394.842 569.508ZM397.062 569.508H395.382L394.902 572.844H396.162L397.062 569.508ZM404.56 569.52H401.428V577.92H403.084V575.16H404.56C406.18 575.16 407.428 573.912 407.428 572.34C407.428 570.768 406.18 569.52 404.56 569.52ZM404.56 573.612H403.084V571.068H404.56C405.268 571.068 405.784 571.608 405.784 572.34C405.784 573.06 405.268 573.612 404.56 573.612ZM408.435 577.92H409.983V569.16H408.435V577.92ZM415.959 571.92V572.628C415.527 572.088 414.879 571.752 414.003 571.752C412.407 571.752 411.087 573.132 411.087 574.92C411.087 576.708 412.407 578.088 414.003 578.088C414.879 578.088 415.527 577.752 415.959 577.212V577.92H417.507V571.92H415.959ZM414.291 576.612C413.343 576.612 412.635 575.928 412.635 574.92C412.635 573.912 413.343 573.228 414.291 573.228C415.251 573.228 415.959 573.912 415.959 574.92C415.959 575.928 415.251 576.612 414.291 576.612ZM420.292 573.624C420.292 573.3 420.604 573.132 420.988 573.132C421.432 573.132 421.768 573.36 421.948 573.744L423.268 573.024C422.8 572.196 421.96 571.752 420.988 571.752C419.752 571.752 418.708 572.436 418.708 573.66C418.708 575.772 421.804 575.292 421.804 576.168C421.804 576.516 421.468 576.684 420.976 576.684C420.376 576.684 419.968 576.396 419.8 575.904L418.456 576.66C418.888 577.584 419.776 578.088 420.976 578.088C422.26 578.088 423.388 577.464 423.388 576.168C423.388 573.96 420.292 574.512 420.292 573.624ZM431.078 571.752C430.262 571.752 429.662 572.076 429.29 572.616C428.954 572.064 428.402 571.752 427.658 571.752C426.89 571.752 426.326 572.052 425.99 572.556V571.92H424.442V577.92H425.99V574.548C425.99 573.648 426.458 573.192 427.118 573.192C427.766 573.192 428.126 573.624 428.126 574.332V577.92H429.674V574.548C429.674 573.648 430.106 573.192 430.79 573.192C431.438 573.192 431.798 573.624 431.798 574.332V577.92H433.346V574.224C433.346 572.724 432.446 571.752 431.078 571.752ZM439.221 571.92V572.628C438.789 572.088 438.141 571.752 437.265 571.752C435.669 571.752 434.349 573.132 434.349 574.92C434.349 576.708 435.669 578.088 437.265 578.088C438.141 578.088 438.789 577.752 439.221 577.212V577.92H440.769V571.92H439.221ZM437.553 576.612C436.605 576.612 435.897 575.928 435.897 574.92C435.897 573.912 436.605 573.228 437.553 573.228C438.513 573.228 439.221 573.912 439.221 574.92C439.221 575.928 438.513 576.612 437.553 576.612ZM449.229 578.088C450.777 578.088 452.133 577.308 452.841 576.108L451.413 575.28C451.017 576.012 450.189 576.468 449.229 576.468C447.585 576.468 446.505 575.328 446.505 573.72C446.505 572.1 447.585 570.96 449.229 570.96C450.189 570.96 451.005 571.416 451.413 572.16L452.841 571.332C452.121 570.132 450.765 569.352 449.229 569.352C446.685 569.352 444.861 571.26 444.861 573.72C444.861 576.168 446.685 578.088 449.229 578.088ZM457.216 571.752C456.412 571.752 455.788 572.052 455.428 572.592V569.52H453.88V577.92H455.428V574.68C455.428 573.636 455.992 573.192 456.748 573.192C457.444 573.192 457.936 573.612 457.936 574.428V577.92H459.484V574.236C459.484 572.64 458.488 571.752 457.216 571.752ZM462.114 575.556H466.638C466.674 575.352 466.698 575.148 466.698 574.92C466.698 573.156 465.438 571.752 463.662 571.752C461.778 571.752 460.494 573.132 460.494 574.92C460.494 576.708 461.766 578.088 463.782 578.088C464.934 578.088 465.834 577.62 466.398 576.804L465.15 576.084C464.886 576.432 464.406 576.684 463.806 576.684C462.99 576.684 462.33 576.348 462.114 575.556ZM462.09 574.356C462.27 573.588 462.834 573.144 463.662 573.144C464.31 573.144 464.958 573.492 465.15 574.356H462.09ZM470.587 578.088C471.763 578.088 472.783 577.464 473.299 576.528L471.955 575.76C471.715 576.252 471.199 576.552 470.575 576.552C469.651 576.552 468.967 575.868 468.967 574.92C468.967 573.96 469.651 573.276 470.575 573.276C471.187 573.276 471.703 573.588 471.943 574.08L473.275 573.3C472.783 572.376 471.763 571.752 470.587 571.752C468.763 571.752 467.419 573.132 467.419 574.92C467.419 576.708 468.763 578.088 470.587 578.088ZM479.65 577.92L477.166 574.884L479.578 571.92H477.73L475.666 574.56V569.52H474.118V577.92H475.666V575.196L477.85 577.92H479.65ZM483.915 571.752C483.039 571.752 482.403 572.076 481.971 572.628V571.92H480.423V580.32H481.971V577.212C482.403 577.764 483.039 578.088 483.915 578.088C485.523 578.088 486.843 576.708 486.843 574.92C486.843 573.132 485.523 571.752 483.915 571.752ZM483.627 576.612C482.679 576.612 481.971 575.928 481.971 574.92C481.971 573.912 482.679 573.228 483.627 573.228C484.587 573.228 485.295 573.912 485.295 574.92C485.295 575.928 484.587 576.612 483.627 576.612ZM490.791 578.088C492.555 578.088 493.971 576.708 493.971 574.92C493.971 573.132 492.555 571.752 490.791 571.752C489.027 571.752 487.623 573.132 487.623 574.92C487.623 576.708 489.027 578.088 490.791 578.088ZM490.791 576.576C489.879 576.576 489.171 575.892 489.171 574.92C489.171 573.948 489.879 573.264 490.791 573.264C491.715 573.264 492.423 573.948 492.423 574.92C492.423 575.892 491.715 576.576 490.791 576.576ZM495.828 571.2C496.356 571.2 496.788 570.768 496.788 570.252C496.788 569.736 496.356 569.292 495.828 569.292C495.312 569.292 494.88 569.736 494.88 570.252C494.88 570.768 495.312 571.2 495.828 571.2ZM495.06 577.92H496.608V571.92H495.06V577.92ZM501.36 571.752C500.556 571.752 499.932 572.052 499.572 572.592V571.92H498.024V577.92H499.572V574.68C499.572 573.636 500.136 573.192 500.892 573.192C501.588 573.192 502.08 573.612 502.08 574.428V577.92H503.628V574.236C503.628 572.64 502.632 571.752 501.36 571.752ZM508.382 573.408V571.92H507.026V570.24L505.478 570.708V571.92H504.434V573.408H505.478V575.904C505.478 577.524 506.21 578.16 508.382 577.92V576.516C507.494 576.564 507.026 576.552 507.026 575.904V573.408H508.382ZM402.339 584.52V589.644L398.739 584.52H397.479V592.92H399.135V587.784L402.735 592.92H403.995V584.52H402.339ZM408.337 593.088C410.101 593.088 411.517 591.708 411.517 589.92C411.517 588.132 410.101 586.752 408.337 586.752C406.573 586.752 405.169 588.132 405.169 589.92C405.169 591.708 406.573 593.088 408.337 593.088ZM408.337 591.576C407.425 591.576 406.717 590.892 406.717 589.92C406.717 588.948 407.425 588.264 408.337 588.264C409.261 588.264 409.969 588.948 409.969 589.92C409.969 590.892 409.261 591.576 408.337 591.576ZM417.154 584.52V587.628C416.722 587.076 416.086 586.752 415.21 586.752C413.602 586.752 412.282 588.132 412.282 589.92C412.282 591.708 413.602 593.088 415.21 593.088C416.086 593.088 416.722 592.764 417.154 592.212V592.92H418.702V584.52H417.154ZM415.498 591.612C414.538 591.612 413.83 590.928 413.83 589.92C413.83 588.912 414.538 588.228 415.498 588.228C416.446 588.228 417.154 588.912 417.154 589.92C417.154 590.928 416.446 591.612 415.498 591.612ZM421.426 590.556H425.95C425.986 590.352 426.01 590.148 426.01 589.92C426.01 588.156 424.75 586.752 422.974 586.752C421.09 586.752 419.806 588.132 419.806 589.92C419.806 591.708 421.078 593.088 423.094 593.088C424.246 593.088 425.146 592.62 425.71 591.804L424.462 591.084C424.198 591.432 423.718 591.684 423.118 591.684C422.302 591.684 421.642 591.348 421.426 590.556ZM421.402 589.356C421.582 588.588 422.146 588.144 422.974 588.144C423.622 588.144 424.27 588.492 424.462 589.356H421.402ZM428.284 588.624C428.284 588.3 428.596 588.132 428.98 588.132C429.424 588.132 429.76 588.36 429.94 588.744L431.26 588.024C430.792 587.196 429.952 586.752 428.98 586.752C427.744 586.752 426.7 587.436 426.7 588.66C426.7 590.772 429.796 590.292 429.796 591.168C429.796 591.516 429.46 591.684 428.968 591.684C428.368 591.684 427.96 591.396 427.792 590.904L426.448 591.66C426.88 592.584 427.768 593.088 428.968 593.088C430.252 593.088 431.38 592.464 431.38 591.168C431.38 588.96 428.284 589.512 428.284 588.624ZM436.683 594.12H438.231C437.391 592.44 436.911 590.64 436.911 588.72C436.911 586.8 437.391 585 438.231 583.32H436.683C435.843 585 435.363 586.8 435.363 588.72C435.363 590.64 435.843 592.44 436.683 594.12ZM442.318 584.52H439.186V592.92H440.842V590.16H442.318C443.938 590.16 445.186 588.912 445.186 587.34C445.186 585.768 443.938 584.52 442.318 584.52ZM442.318 588.612H440.842V586.068H442.318C443.026 586.068 443.542 586.608 443.542 587.34C443.542 588.06 443.026 588.612 442.318 588.612ZM450.178 593.088C452.602 593.088 454.546 591.168 454.546 588.72C454.546 586.26 452.602 584.352 450.178 584.352C447.754 584.352 445.822 586.26 445.822 588.72C445.822 591.168 447.754 593.088 450.178 593.088ZM450.178 591.468C448.654 591.468 447.466 590.328 447.466 588.72C447.466 587.1 448.654 585.96 450.178 585.96C451.702 585.96 452.89 587.1 452.89 588.72C452.89 590.328 451.702 591.468 450.178 591.468ZM458.273 593.088C460.061 593.088 461.321 592.128 461.321 590.556C461.321 588.84 459.905 588.396 458.573 587.976C457.301 587.592 456.977 587.316 456.977 586.8C456.977 586.32 457.385 585.96 458.081 585.96C458.933 585.96 459.389 586.404 459.689 587.04L461.081 586.236C460.517 585.06 459.461 584.352 458.081 584.352C456.641 584.352 455.321 585.264 455.321 586.848C455.321 588.444 456.569 588.984 457.853 589.356C459.101 589.716 459.665 589.956 459.665 590.58C459.665 591.048 459.317 591.468 458.321 591.468C457.277 591.468 456.689 590.964 456.389 590.184L454.973 591.012C455.429 592.26 456.557 593.088 458.273 593.088ZM463.349 594.12C464.189 592.44 464.669 590.64 464.669 588.72C464.669 586.8 464.189 585 463.349 583.32H461.801C462.641 585 463.121 586.8 463.121 588.72C463.121 590.64 462.641 592.44 461.801 594.12H463.349Z" fill="#01D9B1"/>
<rect x="345.5" y="564.42" width="171" height="33" rx="7.5" stroke="#E6FBF7"/>
<circle cx="575" cy="484.92" r="4" fill="#01D9B1"/>
<circle cx="285" cy="484.92" r="4" fill="#01D9B1"/>
<circle cx="431" cy="197.92" r="4" fill="#01D9B1"/>
<circle cx="303" cy="471.92" r="4" fill="#9D98B0"/>
<circle cx="431" cy="216.92" r="4" fill="#9D98B0"/>
<circle cx="557" cy="471.92" r="4" fill="#9D98B0"/>
<defs>
<clipPath id="clip0_4_187430">
<rect width="18" height="18" fill="white" transform="translate(224 575.92)"/>
</clipPath>
<clipPath id="clip1_4_187430">
<rect width="18" height="18" fill="white" transform="translate(189 540.92)"/>
</clipPath>
<clipPath id="clip2_4_187430">
<rect width="18" height="18" fill="white" transform="translate(165 497.92)"/>
</clipPath>
<clipPath id="clip3_4_187430">
<rect width="24" height="24" fill="white" transform="translate(247 495.92)"/>
</clipPath>
<clipPath id="clip4_4_187430">
<rect width="18" height="18" fill="white" transform="translate(620 575.92)"/>
</clipPath>
<clipPath id="clip5_4_187430">
<rect width="18" height="18" fill="white" transform="translate(655 540.92)"/>
</clipPath>
<clipPath id="clip6_4_187430">
<rect width="18" height="18" fill="white" transform="translate(679 497.92)"/>
</clipPath>
<clipPath id="clip7_4_187430">
<rect width="18" height="18" fill="white" transform="translate(424 75.9194)"/>
</clipPath>
<clipPath id="clip8_4_187430">
<rect width="18" height="18" fill="white" transform="translate(371 80.9194)"/>
</clipPath>
<clipPath id="clip9_4_187430">
<rect width="18" height="18" fill="white" transform="translate(477 80.9194)"/>
</clipPath>
<clipPath id="clip10_4_187430">
<rect width="24" height="24" fill="white" transform="translate(595 495.92)"/>
</clipPath>
<clipPath id="clip11_4_187430">
<rect width="24" height="24" fill="white" transform="translate(419 148.92)"/>
</clipPath>
</defs>
</svg>
